<svg width="160" height="32" viewBox="0 0 160 32" fill="none" xmlns="http://www.w3.org/2000/svg">
<path d="M101.345 24.7898L101.338 21.2992C101.338 21.2275 101.352 21.1565 101.379 21.0902C101.406 21.024 101.446 20.9637 101.497 20.9129C101.547 20.8621 101.607 20.8217 101.673 20.7942C101.739 20.7666 101.81 20.7523 101.882 20.7521L113.578 20.7268C113.583 20.7266 113.587 20.7254 113.591 20.7232C113.595 20.721 113.598 20.718 113.601 20.7143C113.603 20.7105 113.605 20.7063 113.605 20.7019C113.606 20.6974 113.605 20.693 113.604 20.6888L112.502 17.876C112.166 17.0039 111.573 16.2546 110.802 15.7272C110.032 15.1998 109.119 14.9192 108.185 14.9226H104.385C104.24 14.9226 104.102 14.8651 104 14.7628C103.897 14.6604 103.84 14.5216 103.84 14.3769V10.8933C103.84 10.7486 103.897 10.6098 104 10.5074C104.102 10.4051 104.24 10.3476 104.385 10.3476H108.066C109.834 10.3361 111.57 10.8236 113.074 11.754C114.749 12.8013 116.041 14.3613 116.76 16.2024L118.891 21.6423C118.956 21.8079 118.98 21.9867 118.96 22.1634C118.94 22.3401 118.877 22.5093 118.778 22.6563L117.134 25.0683C117.084 25.1419 117.017 25.2022 116.938 25.2439C116.859 25.2856 116.772 25.3074 116.683 25.3074H113.419L101.891 25.3327C101.82 25.3329 101.749 25.3189 101.683 25.2917C101.616 25.2644 101.556 25.2244 101.506 25.1739C101.455 25.1233 101.415 25.0633 101.387 24.9971C101.359 24.931 101.345 24.8601 101.345 24.7884" fill="#431E75"/>
<path d="M3.98534 24.6057L2.71256 21.3555C2.66061 21.2214 2.6638 21.0721 2.72146 20.9404C2.77911 20.8086 2.88652 20.705 3.02022 20.6523L8.89946 18.343C9.65496 18.05 10.3038 17.5342 10.7601 16.8639C11.2164 16.1937 11.4587 15.4005 11.4549 14.5894V9.47293C11.4549 9.3282 11.5123 9.18941 11.6145 9.08707C11.7167 8.98474 11.8554 8.92725 11.9999 8.92725H15.4867C15.6313 8.92725 15.7699 8.98474 15.8722 9.08707C15.9744 9.18941 16.0318 9.3282 16.0318 9.47293V14.4726C16.0407 16.0933 15.6032 17.685 14.7675 19.0729C13.7911 20.68 12.3143 21.9213 10.5642 22.6058L4.69198 24.9151C4.5578 24.9666 4.40871 24.963 4.27716 24.9051C4.14561 24.8472 4.04225 24.7395 3.98956 24.6057" fill="#431E75"/>
<path d="M97.944 25.3343H94.4558C94.3115 25.334 94.1732 25.2763 94.0713 25.174C93.9693 25.0717 93.9121 24.9331 93.9121 24.7887V3.56625C93.9121 3.4219 93.9694 3.28346 94.0713 3.18139C94.1733 3.07932 94.3116 3.02197 94.4558 3.02197H97.944C98.0874 3.02309 98.2247 3.08092 98.3257 3.18287C98.4268 3.28482 98.4835 3.42262 98.4834 3.56625V24.7887C98.4834 24.9331 98.4262 25.0717 98.3243 25.174C98.2224 25.2763 98.0841 25.334 97.9398 25.3343" fill="#431E75"/>
<path d="M18.6445 24.7943V3.56625C18.6449 3.42177 18.7025 3.28333 18.8047 3.1813C18.9069 3.07927 19.0453 3.02197 19.1896 3.02197H22.6764C22.7479 3.02179 22.8188 3.03573 22.8849 3.063C22.951 3.09027 23.0111 3.13033 23.0618 3.18089C23.1124 3.23145 23.1526 3.29151 23.18 3.35764C23.2074 3.42376 23.2215 3.49465 23.2215 3.56625V20.7242C23.2215 20.7317 23.2245 20.7388 23.2297 20.7441C23.235 20.7494 23.2421 20.7523 23.2496 20.7523L39.5682 20.7087C39.5718 20.7087 39.5754 20.7095 39.5787 20.7109C39.5821 20.7123 39.5851 20.7144 39.5876 20.717C39.5901 20.7197 39.592 20.7228 39.5933 20.7262C39.5945 20.7296 39.5951 20.7332 39.5949 20.7369L39.6075 25.2626C39.6075 25.2701 39.6046 25.2772 39.5993 25.2825C39.594 25.2878 39.5869 25.2907 39.5794 25.2907L19.191 25.3442C19.1193 25.3444 19.0483 25.3304 18.982 25.3031C18.9157 25.2757 18.8554 25.2356 18.8047 25.1849C18.7539 25.1342 18.7136 25.074 18.6862 25.0077C18.6587 24.9414 18.6445 24.8703 18.6445 24.7985" fill="#431E75"/>
<path d="M84.4706 25.3355H74.7772C74.6326 25.3355 74.494 25.278 74.3918 25.1757C74.2896 25.0734 74.2321 24.9346 74.2321 24.7898V17.4471C74.2321 17.4396 74.2292 17.4325 74.2239 17.4272C74.2186 17.4219 74.2115 17.419 74.204 17.419H26.4649V10.1367C26.4639 9.93146 26.5209 9.73015 26.6292 9.55596C26.7376 9.38178 26.893 9.2418 27.0774 9.15219L39.3936 3.1441C39.4579 3.11266 39.5279 3.09424 39.5994 3.08988C39.6709 3.08552 39.7425 3.09531 39.8102 3.11869C39.878 3.14207 39.9404 3.17858 39.994 3.22613C40.0476 3.27369 40.0913 3.33136 40.1227 3.39584L41.6497 6.5335C41.6812 6.59776 41.6996 6.66759 41.704 6.739C41.7085 6.81041 41.6988 6.88199 41.6756 6.94965C41.6524 7.01732 41.616 7.07973 41.5687 7.13333C41.5214 7.18693 41.4639 7.23065 41.3997 7.262L31.0418 12.318V12.8369H78.2626C78.4072 12.8369 78.5458 12.8944 78.648 12.9968C78.7502 13.0991 78.8077 13.2379 78.8077 13.3826V20.724C78.8075 20.7276 78.808 20.7312 78.8093 20.7346C78.8105 20.738 78.8125 20.7411 78.815 20.7438C78.8175 20.7464 78.8205 20.7485 78.8238 20.7499C78.8272 20.7514 78.8307 20.7521 78.8344 20.7521H84.472C85.1054 20.7521 85.7128 20.5002 86.1607 20.0518C86.6086 19.6035 86.8602 18.9953 86.8602 18.3612V12.7596H91.4372V18.3584C91.4372 20.2089 90.7029 21.9835 89.3959 23.292C88.0889 24.6004 86.3162 25.3355 84.4678 25.3355" fill="#431E75"/>
<path d="M68.0692 10.3476H53.3774C53.3055 10.3482 53.2342 10.3345 53.1675 10.3073C53.1009 10.2801 53.0403 10.24 52.9893 10.1893C52.9382 10.1386 52.8977 10.0782 52.87 10.0117C52.8424 9.94526 52.8281 9.87396 52.8281 9.80194V6.31128C52.8281 6.16656 52.8856 6.02777 52.9878 5.92543C53.09 5.8231 53.2286 5.76561 53.3732 5.76561H63.488V3.46053C63.4884 3.31605 63.546 3.17762 63.6482 3.07559C63.7504 2.97356 63.8888 2.91626 64.0331 2.91626H67.5213C67.6655 2.91626 67.8038 2.9736 67.9058 3.07567C68.0077 3.17774 68.065 3.31618 68.065 3.46053L68.0692 10.3476Z" fill="#431E75"/>
<path d="M90.7359 10.3479H87.5637C87.3775 10.3479 87.1988 10.2738 87.0671 10.1419C86.9353 10.0101 86.8613 9.83119 86.8613 9.64469V6.46906C86.8613 6.28257 86.9353 6.1037 87.0671 5.97183C87.1988 5.83996 87.3775 5.76587 87.5637 5.76587H90.7359C90.9222 5.76587 91.1008 5.83996 91.2326 5.97183C91.3643 6.1037 91.4383 6.28257 91.4383 6.46906V9.64469C91.4383 9.83119 91.3643 10.0101 91.2326 10.1419C91.1008 10.2738 90.9222 10.3479 90.7359 10.3479Z" fill="#431E75"/>
<path d="M148.408 6.71511L142.508 12.6219L136.607 6.71511L141.894 1.4313C142.058 1.26735 142.281 1.17529 142.513 1.17529C142.745 1.17529 142.967 1.26735 143.131 1.4313L148.408 6.71511Z" fill="#431E75"/>
<path d="M147.794 25.9025L143.13 30.5689C142.965 30.7328 142.743 30.8249 142.511 30.8249C142.279 30.8249 142.056 30.7328 141.892 30.5689L137.232 25.9039C137.069 25.7394 136.977 25.5166 136.977 25.2844C136.977 25.0521 137.069 24.8293 137.232 24.6648L141.894 19.9999C141.975 19.9183 142.071 19.8537 142.177 19.8095C142.284 19.7654 142.397 19.7427 142.512 19.7427C142.627 19.7427 142.741 19.7654 142.847 19.8095C142.954 19.8537 143.05 19.9183 143.131 19.9999L147.794 24.662C147.875 24.7433 147.94 24.8398 147.984 24.9462C148.028 25.0525 148.051 25.1664 148.051 25.2815C148.051 25.3966 148.028 25.5106 147.984 25.6169C147.94 25.7232 147.875 25.8198 147.794 25.9011" fill="#431E75"/>
<path d="M142.511 12.6192L133.857 21.2868C133.693 21.4508 133.47 21.5428 133.238 21.5428C133.006 21.5428 132.784 21.4508 132.619 21.2868L127.959 16.6218C127.795 16.4575 127.703 16.2347 127.703 16.0023C127.703 15.7699 127.795 15.5471 127.959 15.3828L136.615 6.71802L142.511 12.6192Z" fill="#28B67A"/>
<path d="M142.512 12.6191L151.167 21.2867C151.331 21.4506 151.554 21.5427 151.786 21.5427C152.018 21.5427 152.24 21.4506 152.405 21.2867L157.067 16.6189C157.149 16.5376 157.213 16.4411 157.257 16.3348C157.301 16.2284 157.324 16.1145 157.324 15.9994C157.324 15.8843 157.301 15.7703 157.257 15.664C157.213 15.5577 157.149 15.4611 157.067 15.3799L148.413 6.71509L142.512 12.6191Z" fill="#28B67A"/>
</svg>
